HIERARCHY
ROOT hemi_large
{
	OFFSET 0.000000 0.000000 0.000000
	CHANNELS 6 Xposition Yposition Zposition Yrotation Xrotation Zrotation
	End Site
	{
		OFFSET 0.000000 0.000000 0.000000
	}
}
MOTION
Frames: 171
Frame Time: 0.008333334
-2.442010 2.128080 3.043454 5.078930 6.540030 -27.885990 
-2.447951 2.132355 3.035234 5.290684 5.962893 -27.367710 
-2.452871 2.133931 3.029025 5.565277 5.628572 -26.860050 
-2.457077 2.134720 3.024245 5.640323 5.418574 -26.329130 
-2.460522 2.135037 3.019592 6.130292 5.363397 -25.973210 
-2.464881 2.134801 3.015157 6.440411 5.248586 -25.482640 
-2.468743 2.134733 3.012304 6.850009 5.216180 -25.109040 
-2.472233 2.134831 3.010372 7.279327 5.247438 -24.777770 
-2.475723 2.134929 3.008441 7.708838 5.276221 -24.446260 
-2.477546 2.136293 3.007004 8.062605 5.298238 -24.255920 
-2.476843 2.139079 3.006014 8.435474 5.357717 -24.220030 
-2.476140 2.141865 3.005025 8.808420 5.416963 -24.183750 
-2.475436 2.144651 3.004035 9.181438 5.475972 -24.147060 
-2.474411 2.148076 3.002706 9.364749 5.539700 -24.175420 
-2.472023 2.152257 3.002525 9.724007 5.490045 -24.138310 
-2.471313 2.156191 3.001159 9.860693 5.500803 -24.188840 
-2.470603 2.160125 2.999793 9.997371 5.511680 -24.239380 
-2.469568 2.163940 2.998303 10.203820 5.425889 -24.237670 
-2.470037 2.168290 2.997481 10.412050 5.434093 -24.105260 
-2.470593 2.172833 2.996075 10.578990 5.326233 -24.193240 
-2.470473 2.177602 2.995183 10.715460 5.249559 -24.187620 
-2.470353 2.182371 2.994291 10.851910 5.172872 -24.182160 
-2.466909 2.186486 2.992166 10.972720 4.792747 -24.612920 
-2.459764 2.188491 2.986849 11.135970 4.534365 -25.302220 
-2.453722 2.189887 2.984587 11.337760 4.334495 -26.235260 
-2.447596 2.190124 2.982589 11.222630 4.148295 -26.646760 
-2.442215 2.189888 2.982464 11.318550 4.278740 -27.216370 
-2.437757 2.189596 2.983100 11.276240 4.430351 -27.723940 
-2.435330 2.188524 2.986668 11.138950 4.629971 -28.089570 
-2.434369 2.187337 2.991529 10.758440 4.918452 -28.397830 
-2.434486 2.186464 2.997326 10.403540 5.103776 -28.434270 
-2.434408 2.185533 3.003475 10.083370 5.436872 -28.561130 
-2.434707 2.185593 3.008669 9.830728 5.722918 -28.525020 
-2.435538 2.185479 3.013077 9.407566 5.752367 -28.515990 
-2.436127 2.187283 3.017290 9.027987 5.909266 -28.489810 
-2.436074 2.188947 3.021332 8.574513 6.006516 -28.373260 
-2.434530 2.189405 3.026408 8.034510 6.101032 -28.440580 
-2.430030 2.186677 3.029310 7.495077 6.157882 -29.126920 
-2.425346 2.184748 3.029096 7.151700 6.021467 -29.671450 
-2.426220 2.181530 3.029130 6.877289 5.867721 -29.731260 
-2.432691 2.180681 3.027694 6.580597 5.824000 -29.525790 
-2.438215 2.179231 3.025123 6.413361 5.461919 -29.093540 
-2.442535 2.178341 3.021472 6.357625 5.118663 -28.822780 
-2.444671 2.178369 3.017721 6.092564 4.860343 -28.764190 
-2.445509 2.178644 3.014442 5.960540 4.673858 -28.687650 
-2.445105 2.179574 3.012675 5.750092 4.527059 -28.744350 
-2.444467 2.180416 3.010907 5.596771 4.348804 -28.719600 
-2.442660 2.180340 3.009198 5.422154 4.160038 -28.838320 
-2.441555 2.180474 3.006912 5.308077 3.955319 -28.972230 
-2.442964 2.180254 3.005263 5.283181 3.799522 -28.864840 
-2.444373 2.180033 3.003614 5.257995 3.643771 -28.757390 
-2.445781 2.179813 3.001965 5.232520 3.488068 -28.649870 
-2.447361 2.180881 3.001106 5.404787 3.394005 -28.476010 
-2.448940 2.181948 3.000247 5.576746 3.299419 -28.302460 
-2.449363 2.184412 2.998498 5.792655 3.145229 -28.308620 
-2.448159 2.187995 2.997272 5.992315 2.773342 -28.238400 
-2.440419 2.187639 2.992083 6.212195 2.466012 -28.820950 
-2.432679 2.187284 2.986893 6.435146 2.160933 -29.404540 
-2.422130 2.185427 2.981935 6.662227 1.672062 -30.241700 
-2.415521 2.184291 2.977481 6.865991 1.332778 -30.846010 
-2.413445 2.184070 2.974869 6.918843 1.165288 -31.122470 
-2.412138 2.184821 2.974711 7.062308 1.042104 -31.218140 
-2.410830 2.185571 2.974553 7.205971 0.919160 -31.314120 
-2.410071 2.186540 2.976545 7.178466 0.941568 -31.356960 
-2.409313 2.187509 2.978538 7.150945 0.963955 -31.399840 
-2.406821 2.186683 2.981353 7.149610 0.992536 -31.926450 
-2.403715 2.185528 2.982868 7.145966 1.080395 -31.990810 
-2.404529 2.186746 2.984473 6.953606 1.123274 -32.043910 
-2.405524 2.187025 2.986410 6.927223 1.189688 -31.934230 
-2.406350 2.187355 2.984805 6.898532 1.153524 -31.819890 
-2.407176 2.187685 2.983201 6.869772 1.117417 -31.705540 
-2.408315 2.186872 2.980685 6.880628 0.979099 -31.589690 
-2.410428 2.185287 2.977779 6.898738 0.750196 -31.369870 
-2.414394 2.182570 2.975465 6.896101 0.674459 -31.100010 
-2.419883 2.180679 2.973099 6.867427 0.579170 -30.582240 
-2.426066 2.178401 2.972482 6.857076 0.427323 -30.085540 
-2.432532 2.174994 2.972482 6.861641 0.425080 -29.450530 
-2.438155 2.170241 2.974265 6.884047 0.536172 -29.027650 
-2.440847 2.164085 2.975312 6.964930 0.836974 -28.693570 
-2.443510 2.157930 2.976348 7.123708 1.063825 -28.440770 
-2.446407 2.152805 2.978133 7.212681 1.291800 -28.315060 
-2.448700 2.147873 2.978248 7.220403 1.405339 -27.943940 
-2.450865 2.144819 2.977901 7.339971 1.409483 -27.784060 
-2.451597 2.141626 2.976658 7.376665 1.533505 -27.601410 
-2.451480 2.141699 2.974130 7.407792 1.380796 -27.402860 
-2.449662 2.142459 2.971786 7.418420 1.398337 -27.357910 
-2.446063 2.143351 2.970457 7.308945 1.339651 -27.505550 
-2.439815 2.145259 2.967368 7.180398 1.205211 -27.730320 
-2.429857 2.146672 2.961674 7.283785 1.036445 -28.231410 
-2.419230 2.149763 2.956311 7.221126 0.650815 -28.862270 
-2.410346 2.151431 2.945884 7.316253 0.194434 -29.308810 
-2.407123 2.152608 2.935645 7.823637 -0.471649 -29.495150 
-2.404840 2.152861 2.931167 8.324405 -0.708679 -29.675540 
-2.405200 2.152586 2.929050 8.682548 -0.864136 -29.485930 
-2.405531 2.153014 2.928823 8.864066 -0.887390 -29.365450 
-2.405498 2.153483 2.929895 9.016868 -0.761200 -29.162230 
-2.404876 2.154915 2.933189 9.183751 -0.498840 -28.960780 
-2.403372 2.155431 2.938872 9.180457 -0.140381 -29.068730 
-2.396729 2.152944 2.946360 8.962665 0.407008 -29.639590 
-2.389484 2.151376 2.952589 8.773807 0.781941 -30.302890 
-2.383991 2.151215 2.961265 8.501639 1.367222 -30.958310 
-2.379680 2.150923 2.969841 7.997626 1.850335 -31.410830 
-2.375229 2.151558 2.975946 7.523949 2.086250 -31.835360 
-2.373310 2.151157 2.978716 7.286192 2.260588 -32.101930 
-2.375932 2.150716 2.979147 7.069849 2.294242 -31.870240 
-2.382306 2.150811 2.979084 6.863035 2.253681 -31.304780 
-2.389148 2.150820 2.978651 6.632694 2.219071 -30.659850 
-2.395786 2.149844 2.980709 6.421234 2.558173 -30.151000 
-2.400741 2.147901 2.984988 6.391172 2.973100 -29.624630 
-2.405343 2.146305 2.988706 6.224024 3.296249 -29.314670 
-2.407404 2.145368 2.992199 5.887346 3.268955 -29.182650 
-2.407592 2.144727 2.993467 5.683674 3.230768 -29.184600 
-2.407416 2.145689 2.993984 5.567842 3.111693 -29.236970 
-2.405695 2.147415 2.993560 5.555796 3.026610 -29.448760 
-2.405694 2.151193 2.994152 5.345335 2.724230 -29.370480 
-2.403469 2.154487 2.993365 5.242456 2.613962 -29.619600 
-2.402375 2.159624 2.993608 5.200144 2.421159 -29.664890 
-2.402081 2.163862 2.993406 5.002712 2.161077 -29.809420 
-2.402276 2.167019 2.985310 5.148077 1.250764 -29.737370 
-2.401843 2.166766 2.981114 5.114872 0.852813 -29.940770 
-2.403316 2.167625 2.978066 5.260564 0.497981 -29.935360 
-2.404788 2.168483 2.975018 5.406219 0.143137 -29.930820 
-2.406218 2.168406 2.974739 5.460981 -0.087738 -29.999850 
-2.406668 2.167214 2.976147 5.513465 -0.259430 -30.208440 
-2.402640 2.162650 2.977454 5.434576 -0.290863 -30.842860 
-2.399792 2.159896 2.978096 5.352357 -0.567566 -31.447810 
-2.399348 2.158694 2.980436 5.229373 -0.534149 -31.719420 
-2.399671 2.158254 2.984956 5.202912 -0.254730 -31.743840 
-2.401054 2.159815 2.990744 5.084608 0.182035 -31.576110 
-2.403608 2.161773 2.995759 5.038249 0.674921 -31.415160 
-2.405967 2.164503 3.001392 5.001453 1.204617 -31.022770 
-2.411000 2.167591 3.006490 4.934109 1.596655 -30.572690 
-2.415572 2.170737 3.011441 4.830314 1.962465 -29.947240 
-2.421296 2.172965 3.015049 4.773138 2.404125 -29.437740 
-2.425101 2.174641 3.017624 4.925541 2.573712 -29.122590 
-2.427616 2.174717 3.018467 4.803297 2.624856 -28.871340 
-2.429181 2.174911 3.019636 4.755972 2.588578 -28.562870 
-2.431731 2.175766 3.022052 4.769720 2.696162 -28.335450 
-2.434708 2.177207 3.025150 4.763134 2.694224 -27.919040 
-2.437423 2.178863 3.027205 4.736187 2.750947 -27.685970 
-2.440651 2.182148 3.030786 4.759000 2.892255 -27.374450 
-2.443603 2.185450 3.034793 4.770724 3.023008 -27.192720 
-2.446273 2.187747 3.039577 4.654835 3.270065 -26.950740 
-2.447710 2.191710 3.045614 4.459925 3.436599 -26.786500 
-2.446828 2.195159 3.049453 4.297447 3.599029 -26.927800 
-2.445946 2.198607 3.053292 4.134539 3.761056 -27.069550 
-2.443273 2.202154 3.057788 3.834846 3.806685 -27.346010 
-2.437831 2.202732 3.061134 3.417414 3.838399 -28.011930 
-2.432986 2.200843 3.063713 3.233493 3.933784 -28.743160 
-2.424090 2.197484 3.060300 3.369756 3.589779 -29.868440 
-2.418535 2.192708 3.055705 3.369884 3.263748 -30.805540 
-2.412281 2.187414 3.051560 3.495825 2.969138 -31.752010 
-2.406895 2.184090 3.047407 3.813366 2.887201 -32.445160 
-2.401240 2.181551 3.044211 4.129926 2.833717 -33.015410 
-2.395280 2.179096 3.042842 4.234086 2.909161 -33.641850 
-2.391850 2.178432 3.044311 4.181072 3.045518 -34.056270 
-2.389066 2.178595 3.047018 4.058066 3.280769 -34.268650 
-2.388150 2.179352 3.050868 3.989823 3.469485 -34.338290 
-2.389038 2.181707 3.055233 3.853647 3.750873 -34.049070 
-2.392307 2.184826 3.061497 3.665736 3.983299 -33.617550 
-2.394126 2.187913 3.065612 3.513523 4.269535 -33.104060 
-2.394099 2.188699 3.066010 3.444746 4.309145 -32.858060 
-2.393696 2.188346 3.062541 3.438719 4.089230 -32.780400 
-2.394398 2.186664 3.057492 3.341147 3.695097 -32.462650 
-2.397840 2.184759 3.053750 3.482817 3.497944 -31.987550 
-2.401720 2.181509 3.048591 3.605356 3.297206 -31.534820 
-2.407603 2.177790 3.045691 3.611006 3.219950 -31.123170 
-2.411262 2.174339 3.041693 3.581352 3.215622 -30.681700 
-2.413920 2.171210 3.038549 3.622128 3.320574 -30.222750 
-2.415501 2.167648 3.034733 3.615913 3.418123 -29.968990 
-2.416108 2.163595 3.032229 3.621422 3.517697 -29.847990 
